<svg xmlns="http://www.w3.org/2000/svg" width="24" height="24" viewBox="0 0 24 24" fill="none" stroke="#22c55e" stroke-width="2" stroke-linecap="round" stroke-linejoin="round">
  <path d="M20.94 15a8.95 8.95 0 0 1-3.72 5.84A9 9 0 0 1 9 21a9 9 0 0 1-7.48-10.61"></path>
  <path d="M11.17 11.13a2.69 2.69 0 0 0 .37 3.43 2.49 2.49 0 0 0 3.8-.08"></path>
  <path d="m21 8-2.26-2.34A3 3 0 0 0 16.8 5H7.2a3 3 0 0 0-1.94.66L3 8"></path>
  <path d="M7 15a6.47 6.47 0 0 1 5 0 6.47 6.47 0 0 0 5 0"></path>
</svg>
